<?xml version="1.0" encoding="UTF-8"?>
<svg width="512px" height="512px" viewBox="0 0 512 512" version="1.1" xmlns="http://www.w3.org/2000/svg" xmlns:xlink="http://www.w3.org/1999/xlink">
    <g stroke="none" stroke-width="1" fill="none" fill-rule="evenodd">
        <rect fill="#00869B" x="0" y="0" width="512" height="512"></rect>
        <path d="M150.720703,163.029297 C151.26107,160.435534 152.638986,158.301115 154.854492,156.625977 C157.069998,154.950838 159.609686,153.410814 162.473633,152.005859 C165.337579,150.600904 168.336573,149.277024 171.470703,148.03418 C174.604833,146.791335 177.495755,145.467455 180.143555,144.0625 C182.791354,142.657545 184.979809,141.00945 186.708984,139.118164 C188.43816,137.226879 189.302734,134.930352 189.302734,132.228516 C189.302734,128.770165 188.411142,125.906261 186.62793,123.636719 C184.844718,121.367176 182.467137,119.421883 179.495117,117.800781 C176.523097,116.179679 173.145852,114.828781 169.363281,113.748047 C165.58071,112.667312 161.717142,111.559576 157.772461,110.424805 C153.82778,109.290033 149.964212,108.047207 146.181641,106.696289 C142.39907,105.345371 139.021825,103.643239 136.049805,101.589844 C133.077785,99.5364481 130.700204,97.0507958 128.916992,94.1328125 C127.13378,91.2148292 126.242188,87.5944227 126.242188,83.2714844 C126.242188,79.7050603 126.971672,76.3278154 128.430664,73.1396484 C129.889656,69.9514815 131.834949,66.92547 134.266602,64.0615234 C136.698254,61.1975768 139.508122,58.5768348 142.696289,56.1992188 C145.884456,53.8216027 149.234683,51.8222737 152.74707,50.2011719 C156.259458,48.58007 159.79881,47.3102259 163.365234,46.3916016 C166.931658,45.4729772 170.227849,45.0136719 173.253906,45.0136719 L175.037109,45.0136719 C176.00977,45.3378922 177.306633,45.8782514 178.927734,46.6347656 C180.548836,47.3912798 182.115878,48.1207647 183.628906,48.8232422 C185.141935,49.5257197 186.438797,50.1741507 187.519531,50.7685547 C188.600266,51.3629587 189.140625,51.7141922 189.140625,51.8222656 L189.140625,55.5507812 C187.087229,55.7669282 184.439469,56.1721975 181.197266,56.7666016 C177.955062,57.3610056 174.550799,58.1445264 170.984375,59.1171875 C167.417951,60.0898486 163.797544,61.3056568 160.123047,62.7646484 C156.448549,64.2236401 153.152358,65.9257715 150.234375,67.8710938 C147.316392,69.816416 144.938811,72.0589066 143.101562,74.5986328 C141.264314,77.1383591 140.345703,80.0292807 140.345703,83.2714844 C140.345703,87.918643 141.966781,91.5660675 145.208984,94.2138672 C148.451188,96.8616669 152.503882,99.0501216 157.367188,100.779297 C162.230493,102.508472 167.553031,104.048496 173.334961,105.399414 C179.116891,106.750332 184.439429,108.37141 189.302734,110.262695 C194.16604,112.153981 198.218734,114.639633 201.460938,117.719727 C204.703141,120.79982 206.324219,124.933568 206.324219,130.121094 C206.324219,132.931004 205.486662,135.875961 203.811523,138.956055 C202.136385,142.036148 199.920912,145.06216 197.165039,148.03418 C194.409166,151.0062 191.302101,153.843085 187.84375,156.544922 C184.385399,159.246758 180.846047,161.597321 177.225586,163.59668 C173.605125,165.596039 170.065773,167.217116 166.607422,168.459961 C163.149071,169.702806 160.069024,170.324219 157.367188,170.324219 C156.5026,170.324219 155.583989,170.216147 154.611328,170 C153.638667,169.783853 152.80111,169.43262 152.098633,168.946289 C151.396155,168.459959 150.855796,167.730474 150.477539,166.757812 C150.099282,165.785151 150.180336,164.542325 150.720703,163.029297 Z M209.404297,69.3300781 C209.404297,68.7897108 209.431315,67.8440823 209.485352,66.4931641 C209.539388,65.1422458 209.566406,63.737312 209.566406,62.2783203 C209.566406,60.8193286 209.593424,59.4414127 209.647461,58.1445312 C209.701498,56.8476498 209.728516,55.9830751 209.728516,55.5507812 C212.430352,52.6327979 214.672843,50.9036485 216.456055,50.3632812 C218.239267,49.822914 219.671219,50.1201115 220.751953,51.2548828 C221.832688,52.3896541 222.616209,54.1998574 223.102539,56.6855469 C223.58887,59.1712364 223.940103,61.9811041 224.15625,65.1152344 C224.372397,68.2493646 224.480469,71.5455556 224.480469,75.0039062 C224.480469,78.4622569 224.534505,81.677394 224.642578,84.6494141 C224.750652,87.6214341 224.966795,90.2421762 225.291016,92.5117188 C225.615236,94.7812613 226.209631,96.2942671 227.074219,97.0507812 L282.677734,97.0507812 C284.947277,97.0507812 286.568355,96.3483143 287.541016,94.9433594 C288.513677,93.5384044 289.081054,91.7011832 289.243164,89.4316406 C289.405274,87.162098 289.32422,84.568374 289,81.6503906 C288.67578,78.7324073 288.378582,75.7334138 288.108398,72.6533203 C287.838215,69.5732268 287.730143,66.5472154 287.78418,63.5751953 C287.838216,60.6031752 288.32454,57.9824332 289.243164,55.7128906 C290.161788,53.443348 291.59374,51.6061268 293.539062,50.2011719 C295.484385,48.7962169 298.348288,48.09375 302.130859,48.09375 C303.535814,50.1471457 304.400389,52.3896363 304.724609,54.8212891 C305.04883,57.2529418 305.129884,59.765612 304.967773,62.359375 C304.805663,64.953138 304.535484,67.5198441 304.157227,70.0595703 C303.778969,72.5992966 303.589844,75.0579308 303.589844,77.4355469 C303.589844,83.8118808 303.995113,90.1881192 304.805664,96.5644531 C305.616215,102.940787 306.48079,109.317025 307.399414,115.693359 C308.318038,122.069693 309.182613,128.418914 309.993164,134.741211 C310.803715,141.063508 311.208984,147.304657 311.208984,153.464844 C311.425131,160.165398 310.992844,164.947577 309.912109,167.811523 C308.831375,170.67547 307.480477,171.972332 305.859375,171.702148 C304.238273,171.431965 302.42807,169.783869 300.428711,166.757812 C298.429352,163.731756 296.592131,159.679062 294.916992,154.599609 C293.241854,149.520157 291.890956,143.549188 290.864258,136.686523 C289.83756,129.823859 289.432291,122.39392 289.648438,114.396484 L231.126953,114.396484 C231.883467,121.853553 232.883132,128.878222 234.125977,135.470703 C235.368821,142.063184 236.341468,147.872045 237.043945,152.897461 C237.746423,157.922877 238.016602,161.921535 237.854492,164.893555 C237.692382,167.865575 236.584646,169.405598 234.53125,169.513672 C231.39712,169.513672 228.74936,168.459971 226.587891,166.352539 C224.426421,164.245107 222.562182,161.354185 220.995117,157.679688 C219.428052,154.00519 218.158208,149.709334 217.185547,144.791992 C216.212886,139.87465 215.402347,134.687202 214.753906,129.229492 C214.105466,123.771783 213.592124,118.179065 213.213867,112.451172 C212.83561,106.723279 212.484377,101.211615 212.160156,95.9160156 C211.835936,90.6204162 211.457684,85.6761297 211.025391,81.0830078 C210.593097,76.4898859 210.052738,72.5722818 209.404297,69.3300781 Z M327.419922,109.208984 C327.419922,108.560544 327.44694,107.506843 327.500977,106.047852 C327.555013,104.58886 327.609049,103.048836 327.663086,101.427734 C327.717123,99.8066325 327.771159,98.2395909 327.825195,96.7265625 C327.879232,95.2135341 327.90625,94.1328157 327.90625,93.484375 C329.095058,91.7551997 330.635082,90.3502658 332.526367,89.2695312 C334.417653,88.1887967 336.335928,87.324222 338.28125,86.6757812 C338.60547,92.5117479 339.524081,98.7258785 341.037109,105.318359 C342.550138,111.91084 344.171215,118.53024 345.900391,125.176758 C347.629566,131.823275 349.16959,138.388639 350.520508,144.873047 C351.871426,151.357454 352.546875,157.409477 352.546875,163.029297 C352.546875,167.892602 350.061223,170.324219 345.089844,170.324219 C342.063787,170.324219 339.524099,169.081393 337.470703,166.595703 C335.417307,164.110014 333.769212,160.948912 332.526367,157.112305 C331.283522,153.275697 330.283858,149.006859 329.527344,144.305664 C328.77083,139.604469 328.257488,134.984398 327.987305,130.445312 C327.717121,125.906227 327.555013,121.745462 327.500977,117.962891 C327.44694,114.18032 327.419922,111.26238 327.419922,109.208984 Z M329.689453,48.4179688 C331.742849,49.2825564 333.471998,50.6874903 334.876953,52.6328125 C336.281908,54.5781347 336.903321,56.3343021 336.741211,57.9013672 C336.579101,59.4684323 335.363293,60.5491507 333.09375,61.1435547 C330.824207,61.7379587 327.041693,61.1165456 321.746094,59.2792969 C321.746094,56.3613135 322.313471,53.8216254 323.448242,51.6601562 C324.583013,49.4986871 326.663396,48.4179688 329.689453,48.4179688 Z" fill="#FFFFFF"></path>
        <path d="M80.2421875,193.820312 C80.2421875,191.766917 80.1881516,189.551444 80.0800781,187.173828 C79.9720047,184.796212 80.1611304,182.580739 80.6474609,180.527344 C81.1337915,178.473948 81.9983662,176.771817 83.2412109,175.420898 C84.4840557,174.06998 86.5104026,173.394531 89.3203125,173.394531 C91.3737082,176.204441 92.6975882,179.689758 93.2919922,183.850586 C93.8863962,188.011414 94.2916656,192.388323 94.5078125,196.981445 C94.7239594,201.574567 94.967121,206.140602 95.2373047,210.679688 C95.5074883,215.218773 96.399081,219.217431 97.9121094,222.675781 C98.0201828,223.108075 98.5335241,223.729488 99.4521484,224.540039 C100.370773,225.35059 100.992186,225.863931 101.316406,226.080078 C104.55861,223.270168 107.503567,220.352229 110.151367,217.326172 C112.799167,214.300115 115.419909,211.355158 118.013672,208.491211 C120.607435,205.627264 123.201159,202.89845 125.794922,200.304688 C128.388685,197.710925 131.225571,195.441416 134.305664,193.496094 C137.385758,191.550772 140.844056,190.010748 144.680664,188.875977 C148.517272,187.741205 152.867163,187.173828 157.730469,187.173828 C157.730469,189.767591 156.811858,192.361315 154.974609,194.955078 C153.137361,197.548841 150.813816,200.169583 148.003906,202.817383 C145.193996,205.465183 142.113949,208.166978 138.763672,210.922852 C135.413395,213.678725 132.17124,216.488592 129.037109,219.352539 C125.902979,222.216486 123.093111,225.080389 120.607422,227.944336 C118.121732,230.808283 116.338547,233.699204 115.257812,236.617188 C117.095061,237.049481 120.148091,238.103182 124.416992,239.77832 C128.685894,241.453459 133.549126,243.506824 139.006836,245.938477 C144.464546,248.370129 150.111299,250.990871 155.947266,253.800781 C161.783232,256.610691 167.132788,259.393541 171.996094,262.149414 C176.859399,264.905287 180.831039,267.499011 183.911133,269.930664 C186.991226,272.362317 188.53125,274.334628 188.53125,275.847656 L188.53125,277.874023 C188.53125,278.900721 188.450196,279.954422 188.288086,281.035156 C188.125976,282.115891 187.774742,283.061519 187.234375,283.87207 C186.694008,284.682621 185.829433,285.087891 184.640625,285.087891 C180.10154,284.979817 175.832702,284.14226 171.833984,282.575195 C167.835266,281.00813 163.94468,279.062837 160.162109,276.739258 C156.379538,274.415678 152.624042,271.984062 148.895508,269.444336 C145.166974,266.90461 141.357441,264.472993 137.466797,262.149414 C133.576152,259.825835 129.550477,257.934578 125.389648,256.475586 C121.22882,255.016594 116.716821,254.179038 111.853516,253.962891 C110.232414,256.556654 109.529947,259.069324 109.746094,261.500977 C109.962241,263.932629 110.691726,266.364246 111.93457,268.795898 C113.177415,271.227551 114.663403,273.713203 116.392578,276.25293 C118.121753,278.792656 119.634759,281.440416 120.931641,284.196289 C122.228522,286.952162 123.093097,289.843084 123.525391,292.869141 C123.957684,295.895197 123.471361,299.083317 122.066406,302.433594 C121.850259,302.757814 121.44499,303.109048 120.850586,303.487305 C120.256182,303.865562 119.607751,304.270831 118.905273,304.703125 C118.202796,305.135419 117.473311,305.459634 116.716797,305.675781 C115.960283,305.891928 115.473959,306 115.257812,306 C113.852858,306 112.312834,304.649102 110.637695,301.947266 C108.962557,299.245429 107.179371,295.570987 105.288086,290.923828 C103.3968,286.276669 101.451507,280.954132 99.4521484,274.956055 C97.4527895,268.957978 95.5074964,262.743847 93.6162109,256.313477 C91.7249254,249.883106 89.9957761,243.398796 88.4287109,236.860352 C86.8616458,230.321907 85.4567119,224.215849 84.2138672,218.541992 C82.9710224,212.868136 81.9983759,207.869813 81.2958984,203.546875 C80.593421,199.223937 80.2421875,195.981782 80.2421875,193.820312 Z M191.449219,208.410156 C191.449219,206.680981 191.800452,205.086921 192.50293,203.62793 C193.205407,202.168938 194.583323,201.439453 196.636719,201.439453 C198.365894,201.439453 200.068025,203.222638 201.743164,206.789062 C203.418303,210.355487 205.147452,214.921522 206.930664,220.487305 C208.713876,226.053088 210.578115,232.159146 212.523438,238.805664 C214.46876,245.452182 216.522125,251.882456 218.683594,258.09668 C220.845063,264.310903 223.114571,269.876603 225.492188,274.793945 C227.869804,279.711288 230.409492,283.142568 233.111328,285.087891 C235.705091,284.007156 237.785474,282.088881 239.352539,279.333008 C240.919604,276.577135 242.189448,273.280944 243.162109,269.444336 C244.13477,265.607728 244.864255,261.446963 245.350586,256.961914 L246.80957,243.506836 C247.295901,239.021787 247.809242,234.644878 248.349609,230.375977 C248.889977,226.107075 249.673497,222.351579 250.700195,219.109375 C251.726893,215.867171 253.050773,213.273447 254.671875,211.328125 C256.292977,209.382803 258.346342,208.410156 260.832031,208.410156 C262.34506,208.410156 263.695958,208.545246 264.884766,208.81543 C266.073574,209.085613 267.100256,210.19335 267.964844,212.138672 C268.397138,213.543627 269.099605,215.596992 270.072266,218.298828 C271.044927,221.000665 272.152663,224.134748 273.395508,227.701172 C274.638353,231.267596 276.043286,235.077128 277.610352,239.129883 C279.177417,243.182637 280.798494,247.154277 282.473633,251.044922 C284.148771,254.935566 285.796867,258.637027 287.417969,262.149414 C289.039071,265.661801 290.606112,268.660795 292.119141,271.146484 C292.335288,271.578778 292.902665,272.254227 293.821289,273.172852 C294.739913,274.091476 295.361327,274.604817 295.685547,274.712891 L302.65625,267.742188 C304.493499,265.904939 305.898433,263.176125 306.871094,259.555664 C307.843755,255.935203 308.57324,251.74742 309.05957,246.992188 C309.545901,242.236955 309.870116,237.130561 310.032227,231.672852 C310.194337,226.215142 310.329427,220.784532 310.4375,215.380859 C310.545573,209.977187 310.761717,204.735702 311.085938,199.65625 C311.410158,194.576798 311.950517,190.118834 312.707031,186.282227 C313.463545,182.445619 314.544264,179.392589 315.949219,177.123047 C317.354174,174.853504 319.299467,173.71875 321.785156,173.71875 C321.89323,173.71875 322.02832,173.745768 322.19043,173.799805 C322.35254,173.853841 322.541666,173.880859 322.757812,173.880859 C323.082033,173.988933 323.298177,174.042969 323.40625,174.042969 C323.514323,174.042969 323.784503,174.232094 324.216797,174.610352 C324.649091,174.988609 325.05436,175.339842 325.432617,175.664062 C325.810874,175.988283 326.13509,176.312498 326.405273,176.636719 C326.675457,176.960939 326.864583,177.231119 326.972656,177.447266 C326.972656,178.20378 326.999674,179.554678 327.053711,181.5 C327.107748,183.445322 327.134766,185.552723 327.134766,187.822266 C327.134766,190.091808 327.161784,192.226227 327.21582,194.225586 C327.269857,196.224945 327.296875,197.602861 327.296875,198.359375 C327.296875,200.520844 327.269857,203.49282 327.21582,207.275391 C327.161784,211.057962 326.999676,215.353817 326.729492,220.163086 C326.459309,224.972355 326.081057,230.105767 325.594727,235.563477 C325.108396,241.021186 324.378911,246.424778 323.40625,251.774414 C322.433589,257.12405 321.217781,262.257462 319.758789,267.174805 C318.299797,272.092147 316.516612,276.41502 314.40918,280.143555 C312.301747,283.872089 309.870131,286.844064 307.114258,289.05957 C304.358385,291.275076 301.089212,292.382812 297.306641,292.382812 C293.632143,292.382812 290.525078,291.167004 287.985352,288.735352 C285.445625,286.303699 283.257171,283.277687 281.419922,279.657227 C279.582673,276.036766 278.015631,272.092144 276.71875,267.823242 C275.421869,263.554341 274.097989,259.582701 272.74707,255.908203 C271.396152,252.233706 269.937182,249.180676 268.370117,246.749023 C266.803052,244.317371 264.884777,243.101562 262.615234,243.101562 C262.399087,243.101562 262.10189,243.155598 261.723633,243.263672 C261.345376,243.371745 261.048178,243.425781 260.832031,243.425781 C260.723958,243.858075 260.399742,245.749332 259.859375,249.099609 C259.319008,252.449887 258.562505,256.421527 257.589844,261.014648 C256.617183,265.60777 255.428392,270.552057 254.023438,275.847656 C252.618483,281.143256 251.024423,286.006488 249.241211,290.4375 C247.457999,294.868512 245.512706,298.569972 243.405273,301.541992 C241.297841,304.514012 239.001315,306 236.515625,306 C231.436173,306 226.789084,304.081725 222.574219,300.245117 C218.359354,296.408509 214.603858,291.437205 211.307617,285.331055 C208.011377,279.224904 205.120455,272.443397 202.634766,264.986328 C200.149076,257.52926 198.068693,250.207393 196.393555,243.020508 C194.718416,235.833623 193.47559,229.133169 192.665039,222.918945 C191.854488,216.704722 191.449219,211.868507 191.449219,208.410156 Z M406.730469,285.087891 C402.623677,287.897801 399.084325,290.410471 396.112305,292.625977 C393.140285,294.841482 390.249363,296.705722 387.439453,298.21875 C384.629543,299.731778 381.63055,300.866533 378.442383,301.623047 C375.254216,302.379561 371.336612,302.757812 366.689453,302.757812 C356.638622,302.757812 349.181665,300.083035 344.318359,294.733398 C339.455054,289.383762 337.023438,281.413464 337.023438,270.822266 C337.023438,266.715474 337.563797,262.446637 338.644531,258.015625 C339.725266,253.584613 341.319325,249.180686 343.426758,244.803711 C345.53419,240.426736 348.04686,236.26597 350.964844,232.321289 C353.882827,228.376608 357.179018,224.891291 360.853516,221.865234 C364.528013,218.839178 368.445617,216.434579 372.606445,214.651367 C376.767273,212.868155 381.171201,211.976562 385.818359,211.976562 C393.599648,212.733077 399.705707,214.651352 404.136719,217.731445 C408.56773,220.811539 411.917957,224.756161 414.1875,229.56543 C416.457043,234.374699 418.024084,239.724254 418.888672,245.614258 C419.75326,251.504261 420.428709,257.583302 420.915039,263.851562 C421.40137,270.119823 422.022783,276.387989 422.779297,282.65625 C423.535811,288.924511 425.102853,294.706354 427.480469,300.001953 C426.075514,303.568377 424.751634,306.081047 423.508789,307.540039 C422.265944,308.999031 420.888028,309.242192 419.375,308.269531 C417.861972,307.29687 416.105804,304.91929 414.106445,301.136719 C412.107086,297.354148 409.648452,292.004592 406.730469,285.087891 Z M350.802734,271.146484 C350.802734,277.306671 351.964507,281.818671 354.288086,284.682617 C356.611665,287.546564 360.745413,288.978516 366.689453,288.978516 C371.120465,288.978516 375.362284,288.194995 379.415039,286.62793 C383.467794,285.060865 387.007146,282.899428 390.033203,280.143555 C393.05926,277.387682 395.490876,274.064473 397.328125,270.173828 C399.165374,266.283184 400.083984,261.96031 400.083984,257.205078 C400.083984,255.259756 400.13802,252.530942 400.246094,249.018555 C400.354167,245.506167 400.138024,242.020851 399.597656,238.5625 C399.057289,235.104149 398.030607,232.105156 396.517578,229.56543 C395.00455,227.025703 392.735041,225.755859 389.708984,225.755859 C384.089165,225.755859 378.901716,227.187811 374.146484,230.051758 C369.391252,232.915704 365.284522,236.563129 361.826172,240.994141 C358.367821,245.425152 355.666025,250.315403 353.720703,255.665039 C351.775381,261.014675 350.802734,266.175105 350.802734,271.146484 Z" fill="#FFFFFF"></path>
        <path d="M185.367188,451.705078 C187.096363,450.51627 189.176746,448.976246 191.608398,447.084961 C194.040051,445.193675 196.498685,443.167329 198.984375,441.005859 C201.470065,438.84439 203.793609,436.574882 205.955078,434.197266 C208.116547,431.81965 209.818679,429.523123 211.061523,427.307617 C212.304368,425.092111 212.925781,423.011728 212.925781,421.066406 C212.925781,419.121084 211.953135,417.500006 210.007812,416.203125 C206.549462,416.203125 202.766948,416.338215 198.660156,416.608398 C194.553365,416.878582 190.446635,416.986654 186.339844,416.932617 C182.233052,416.87858 178.261412,416.527347 174.424805,415.878906 C170.588197,415.230466 167.156916,414.041675 164.130859,412.3125 C161.104803,410.583325 158.700204,408.12469 156.916992,404.936523 C155.13378,401.748356 154.242188,397.668645 154.242188,392.697266 C154.242188,386.861299 155.349924,381.592797 157.56543,376.891602 C159.780936,372.190406 162.725893,368.02964 166.400391,364.40918 C170.074888,360.788719 174.208636,357.6006 178.801758,354.844727 C183.39488,352.088853 188.014951,349.738291 192.662109,347.792969 C195.472019,348.549483 198.065743,349.900381 200.443359,351.845703 C202.820975,353.791025 204.87434,355.952462 206.603516,358.330078 C205.847001,360.707694 204.361014,362.544915 202.145508,363.841797 C199.930002,365.138678 197.390314,366.273433 194.526367,367.246094 C191.662421,368.218755 188.663427,369.245437 185.529297,370.326172 C182.395167,371.406906 179.558281,372.838858 177.018555,374.62207 C174.478828,376.405282 172.34441,378.728827 170.615234,381.592773 C168.886059,384.45672 168.021484,388.212216 168.021484,392.859375 C168.021484,396.317726 168.886059,398.857414 170.615234,400.478516 C172.34441,402.099617 174.613918,403.207354 177.423828,403.801758 C180.233738,404.396162 183.421857,404.612305 186.988281,404.450195 C190.554705,404.288085 194.20213,404.044923 197.930664,403.720703 C201.659198,403.396483 205.306623,403.207357 208.873047,403.15332 C212.439471,403.099284 215.62759,403.531571 218.4375,404.450195 C221.24741,405.36882 223.4899,406.854807 225.165039,408.908203 C226.840178,410.961599 227.677734,413.98761 227.677734,417.986328 C227.677734,419.715503 227.110357,421.930976 225.975586,424.632812 C224.840815,427.334649 223.327809,430.225571 221.436523,433.305664 C219.545238,436.385758 217.329765,439.438787 214.790039,442.464844 C212.250313,445.490901 209.602553,448.219714 206.84668,450.651367 C204.090807,453.08302 201.334975,455.082349 198.579102,456.649414 C195.823228,458.216479 193.256522,459 190.878906,459 C188.609364,459 187.123376,458.189461 186.420898,456.568359 C185.718421,454.947258 185.367188,453.32618 185.367188,451.705078 Z M269.177734,316.667969 C269.826175,314.722647 270.771804,313.587892 272.014648,313.263672 C273.257493,312.939452 274.689445,312.777344 276.310547,312.777344 C278.796236,312.777344 281.579086,314.425439 284.65918,317.72168 C287.739273,321.01792 290.900374,325.421847 294.142578,330.933594 C297.384782,336.44534 300.653955,342.767542 303.950195,349.900391 C307.246436,357.033239 310.434555,364.409142 313.514648,372.02832 C316.594742,379.647499 319.485664,387.239546 322.1875,394.804688 C324.889336,402.369829 327.239899,409.313445 329.239258,415.635742 C331.238617,421.958039 332.77864,427.442685 333.859375,432.089844 C334.94011,436.737002 335.480469,439.925122 335.480469,441.654297 C335.480469,443.383472 335.075199,445.031568 334.264648,446.598633 C333.454098,448.165698 332.022146,448.949219 329.96875,448.949219 C328.671869,448.949219 327.564132,448.543949 326.645508,447.733398 C325.726883,446.922848 324.943363,445.923183 324.294922,444.734375 C323.646481,443.545567 323.052086,442.356777 322.511719,441.167969 C321.971351,439.979161 321.485028,438.952478 321.052734,438.087891 C320.620441,436.899083 319.728848,434.629574 318.37793,431.279297 C317.027011,427.92902 315.622078,424.416685 314.163086,420.742188 C312.704094,417.06769 311.326178,413.609391 310.029297,410.367188 C308.732415,407.124984 307.813805,404.801439 307.273438,403.396484 C299.708296,402.099603 292.116249,400.883795 284.49707,399.749023 C276.877892,398.614252 268.853558,397.506516 260.423828,396.425781 L258.640625,396.425781 C254.749981,413.177167 251.3187,426.415967 248.34668,436.142578 C245.37466,445.869189 242.889007,452.785787 240.889648,456.892578 C238.890289,460.999369 237.323248,462.701501 236.188477,461.999023 C235.053705,461.296546 234.297202,458.810894 233.918945,454.541992 C233.540688,450.273091 233.594724,444.572301 234.081055,437.439453 C234.567385,430.306605 235.485996,422.444379 236.836914,413.852539 C238.187832,405.260699 239.835928,396.263719 241.78125,386.861328 C243.726572,377.458937 246.077135,368.380903 248.833008,359.626953 C251.588881,350.873003 254.668928,342.740597 258.073242,335.229492 C261.477556,327.718387 265.179016,321.531274 269.177734,316.667969 Z M265.287109,373.730469 C265.287109,377.729187 266.583971,380.674144 269.177734,382.56543 C271.771497,384.456715 274.905581,385.672523 278.580078,386.212891 C282.254576,386.753258 286.118144,386.969402 290.170898,386.861328 C294.223653,386.753255 297.70897,386.699219 300.626953,386.699219 C300.626953,382.37628 299.924486,377.702174 298.519531,372.676758 C297.114576,367.651342 295.331391,362.65302 293.169922,357.681641 C291.008453,352.710262 288.711926,347.874047 286.280273,343.172852 C283.848621,338.471656 281.60613,334.229837 279.552734,330.447266 C278.363926,331.636074 277.094082,333.824528 275.743164,337.012695 C274.392246,340.200862 273.041348,343.767233 271.69043,347.711914 C270.339511,351.656595 269.123703,355.520163 268.042969,359.302734 C266.962234,363.085305 266.151695,366.165353 265.611328,368.542969 C265.611328,368.867189 265.557292,369.704746 265.449219,371.055664 C265.341145,372.406582 265.287109,373.298175 265.287109,373.730469 Z"  fill="#FFFFFF"></path>
    </g>
</svg>
